<svg width="36" height="38" viewBox="0 0 36 38" fill="none" xmlns="http://www.w3.org/2000/svg">
<path d="M1.5 1.5H4.94085C6.14071 1.5 6.73958 1.5 7.21783 1.7624C7.41499 1.87094 7.59358 2.01024 7.74686 2.17505C8.11719 2.575 8.2632 3.15694 8.55311 4.32082L8.93825 5.85926C9.15198 6.71418 9.25991 7.14164 9.42497 7.50139C9.70712 8.11527 10.1321 8.65268 10.6645 9.06869C11.1968 9.4847 11.821 9.76723 12.4849 9.89263C12.8743 9.96458 13.3144 9.96458 14.1969 9.96458" stroke="black" stroke-width="3" stroke-linecap="round"/>
<path d="M31.126 29.0099H9.0123C8.70545 29.0099 8.55098 29.0099 8.43247 28.9972C8.13865 28.9644 7.85496 28.8704 7.59968 28.7213C7.34441 28.5722 7.12321 28.3712 6.95035 28.1313C6.7775 27.8915 6.65682 27.6181 6.59609 27.3288C6.53536 27.0394 6.53593 26.7406 6.59777 26.4515C6.64643 26.2641 6.70362 26.0791 6.76918 25.897C6.87922 25.5711 6.93212 25.4082 6.99349 25.2622C7.29473 24.5407 7.78994 23.9167 8.4242 23.4595C9.05846 23.0023 9.80697 22.7297 10.5867 22.672C10.7433 22.6614 10.9168 22.6614 11.2575 22.6614H22.6614" stroke="black" stroke-width="3" stroke-linecap="round" stroke-linejoin="round"/>
<path d="M23.7788 22.6615H16.258C13.6848 22.6615 12.3982 22.6615 11.4057 22.0795C10.9872 21.8333 10.6143 21.5169 10.3032 21.1442C9.56251 20.2596 9.3509 18.99 8.92979 16.4527C8.50021 13.8816 8.28648 12.595 8.79647 11.6427C9.00863 11.2453 9.30294 10.8976 9.65986 10.6227C10.5148 9.9646 11.8183 9.9646 14.4254 9.9646H28.5105C31.5789 9.9646 33.1131 9.9646 33.7352 10.9677C34.3553 11.9728 33.6675 13.3441 32.2963 16.0887L31.3504 17.9827C30.2119 20.2596 29.6426 21.3981 28.6205 22.0287C27.5963 22.6615 26.3245 22.6615 23.7788 22.6615Z" stroke="black" stroke-width="3" stroke-linecap="round"/>
<path d="M29.0099 37.4745C30.1786 37.4745 31.126 36.527 31.126 35.3583C31.126 34.1896 30.1786 33.2422 29.0099 33.2422C27.8412 33.2422 26.8937 34.1896 26.8937 35.3583C26.8937 36.527 27.8412 37.4745 29.0099 37.4745Z" fill="black"/>
<path d="M12.0807 37.4745C13.2495 37.4745 14.1969 36.527 14.1969 35.3583C14.1969 34.1896 13.2495 33.2422 12.0807 33.2422C10.912 33.2422 9.9646 34.1896 9.9646 35.3583C9.9646 36.527 10.912 37.4745 12.0807 37.4745Z" fill="black"/>
</svg>
