<svg width="23" height="26" viewBox="0 0 23 26" fill="none" xmlns="http://www.w3.org/2000/svg">
<path d="M2.875 23.0286H7.1875V15.6C7.1875 15.179 7.3255 14.8264 7.6015 14.5422C7.8775 14.2579 8.21866 14.1153 8.625 14.1143H14.375C14.7823 14.1143 15.1239 14.2569 15.3999 14.5422C15.6759 14.8274 15.8135 15.18 15.8125 15.6V23.0286H20.125V9.65714L11.5 2.97143L2.875 9.65714V23.0286ZM0 23.0286V9.65714C0 9.18666 0.102062 8.74095 0.306187 8.32C0.510312 7.89905 0.791583 7.55238 1.15 7.28L9.775 0.594286C10.2781 0.198095 10.8531 0 11.5 0C12.1469 0 12.7219 0.198095 13.225 0.594286L21.85 7.28C22.2094 7.55238 22.4911 7.89905 22.6952 8.32C22.8994 8.74095 23.001 9.18666 23 9.65714V23.0286C23 23.8457 22.7182 24.5455 22.1547 25.1279C21.5912 25.7103 20.9147 26.001 20.125 26H14.375C13.9677 26 13.6265 25.8574 13.3515 25.5721C13.0765 25.2869 12.9385 24.9342 12.9375 24.5143V17.0857H10.0625V24.5143C10.0625 24.9352 9.9245 25.2883 9.6485 25.5736C9.3725 25.8589 9.03133 26.001 8.625 26H2.875C2.08437 26 1.40779 25.7093 0.84525 25.1279C0.282708 24.5465 0.000958333 23.8467 0 23.0286Z" fill="black"/>
</svg>
