<svg width="35" height="35" viewBox="0 0 35 35" fill="none" xmlns="http://www.w3.org/2000/svg">
<path d="M9.53239 28.3744C11.6164 28.4517 14.1784 28.5072 17.2542 28.5072C22.7839 28.5072 26.6504 28.3286 29.0713 28.1598C30.9843 28.0271 32.4765 26.5987 32.6438 24.6887C32.8283 22.5956 33.0084 19.4185 33.0084 15.0036C33.0084 10.5887 32.8283 7.41082 32.6438 5.31852C32.4765 3.40851 30.9843 1.98013 29.0713 1.84734C26.6504 1.67855 22.7847 1.5 17.2542 1.5C11.7237 1.5 7.85794 1.67855 5.43705 1.84734C3.52404 1.98013 2.03189 3.40851 1.8646 5.31852C1.68005 7.41157 1.5 10.5887 1.5 15.0036V31.9971C1.5 33.2784 3.0034 33.9701 3.97716 33.1359L9.53239 28.3744Z" stroke="black" stroke-width="3" stroke-linecap="round" stroke-linejoin="round"/>
<path d="M20.1665 19.4688C21.8304 18.5401 22.6871 17.5273 22.8207 15.8078C22.3135 15.8064 21.8063 15.7997 21.2993 15.7876C20.3015 15.7621 19.5543 15.0134 19.528 14.0156C19.5117 13.3631 19.5039 12.7103 19.5048 12.0576C19.5048 11.1874 19.516 10.5054 19.531 9.97954C19.558 9.04029 20.2355 8.3276 21.1747 8.28859C21.6961 8.26759 22.3765 8.25183 23.2558 8.25183C24.135 8.25183 24.8154 8.26684 25.3368 8.28934C26.2761 8.32685 26.9535 9.04029 26.9805 9.98029C26.9955 10.5017 27.0068 11.1761 27.0068 12.0358V15.8086H26.9895C26.7675 18.9864 24.4201 20.8799 21.7606 21.6977C21.3863 21.8132 20.9729 21.7577 20.6901 21.4876C20.3615 21.1733 20.0802 20.7847 19.8739 20.4613C19.6526 20.1132 19.8064 19.6699 20.1665 19.4688ZM8.16327 19.4688C9.82721 18.5401 10.6839 17.5273 10.8175 15.8078C10.3103 15.8064 9.80312 15.7997 9.29607 15.7876C8.2983 15.7621 7.5511 15.0134 7.52485 14.0156C7.50849 13.3631 7.50074 12.7103 7.50159 12.0576C7.50159 11.1874 7.51284 10.5054 7.52785 9.97954C7.55485 9.04029 8.23228 8.3276 9.17153 8.28859C9.69292 8.26759 10.3734 8.25183 11.2526 8.25183C12.1318 8.25183 12.8123 8.26684 13.3336 8.28934C14.2729 8.32685 14.9503 9.04029 14.9773 9.98029C14.9923 10.5017 15.0036 11.1761 15.0036 12.0358V15.8086H14.9863C14.7643 18.9864 12.4169 20.8799 9.75744 21.6977C9.38309 21.8132 8.96973 21.7577 8.6869 21.4876C8.35832 21.1733 8.07699 20.7847 7.87069 20.4613C7.64938 20.1132 7.80317 19.6699 8.16327 19.4688Z" stroke="black" stroke-width="3" stroke-linecap="round" stroke-linejoin="round"/>
</svg>
